<svg xmlns="http://www.w3.org/2000/svg" viewBox="0 0 64 88"><g data-bamboo="1"><path d="M28 47C14 39 15 25 27 23C40 20 50 36 43 50L33 68L27 74L30 55" fill="#235b42"/><path d="M29 47C43 32 46 37 39 54L27 75L20 78L29 54" fill="#4c7754"/><path d="M30 47L40 41M29 53L38 47M28 60L35 54" stroke="#d4c78c" stroke-width="1.4"/><path d="M22 28C15 26 16 18 22 17C30 16 33 24 28 29" fill="#235b42"/><path d="M17 23L10 27L18 28" fill="#b7904b"/><path d="M20 17Q23 12 27 17" stroke="#a4382d" stroke-width="3" fill="none"/><circle cx="22" cy="21" r="1.4" fill="#fff6de"/><path d="M25 53L22 65L15 67M32 55L31 65L38 67" stroke="#a58b51" stroke-width="2" fill="none"/></g></svg>