<svg xmlns="http://www.w3.org/2000/svg" viewBox="0 0 64 88"><g data-bamboo="1" transform="translate(18 10.5)"><path d="M-3 0Q0 2 3 0L4 3L2.6 4L2.6 9L4 11L3 13Q0 11 -3 13L-4 11L-2.6 9L-2.6 4L-4 3Z" fill="#194837"/><path d="M0 3V10M-3 6.5H3" stroke="#f7efdc" stroke-width="1.1"/></g><g data-bamboo="2" transform="translate(46 10.5)"><path d="M-3 0Q0 2 3 0L4 3L2.6 4L2.6 9L4 11L3 13Q0 11 -3 13L-4 11L-2.6 9L-2.6 4L-4 3Z" fill="#194837"/><path d="M0 3V10M-3 6.5H3" stroke="#f7efdc" stroke-width="1.1"/></g><g data-bamboo="3" transform="translate(18 28.5)"><path d="M-3 0Q0 2 3 0L4 3L2.6 4L2.6 9L4 11L3 13Q0 11 -3 13L-4 11L-2.6 9L-2.6 4L-4 3Z" fill="#194837"/><path d="M0 3V10M-3 6.5H3" stroke="#f7efdc" stroke-width="1.1"/></g><g data-bamboo="4" transform="translate(46 28.5)"><path d="M-3 0Q0 2 3 0L4 3L2.6 4L2.6 9L4 11L3 13Q0 11 -3 13L-4 11L-2.6 9L-2.6 4L-4 3Z" fill="#194837"/><path d="M0 3V10M-3 6.5H3" stroke="#f7efdc" stroke-width="1.1"/></g><g data-bamboo="5" transform="translate(18 46.5)"><path d="M-3 0Q0 2 3 0L4 3L2.6 4L2.6 9L4 11L3 13Q0 11 -3 13L-4 11L-2.6 9L-2.6 4L-4 3Z" fill="#194837"/><path d="M0 3V10M-3 6.5H3" stroke="#f7efdc" stroke-width="1.1"/></g><g data-bamboo="6" transform="translate(46 46.5)"><path d="M-3 0Q0 2 3 0L4 3L2.6 4L2.6 9L4 11L3 13Q0 11 -3 13L-4 11L-2.6 9L-2.6 4L-4 3Z" fill="#194837"/><path d="M0 3V10M-3 6.5H3" stroke="#f7efdc" stroke-width="1.1"/></g><g data-bamboo="7" transform="translate(18 64.5)"><path d="M-3 0Q0 2 3 0L4 3L2.6 4L2.6 9L4 11L3 13Q0 11 -3 13L-4 11L-2.6 9L-2.6 4L-4 3Z" fill="#194837"/><path d="M0 3V10M-3 6.5H3" stroke="#f7efdc" stroke-width="1.1"/></g><g data-bamboo="8" transform="translate(46 64.5)"><path d="M-3 0Q0 2 3 0L4 3L2.6 4L2.6 9L4 11L3 13Q0 11 -3 13L-4 11L-2.6 9L-2.6 4L-4 3Z" fill="#194837"/><path d="M0 3V10M-3 6.5H3" stroke="#f7efdc" stroke-width="1.1"/></g></svg>